<svg xmlns="http://www.w3.org/2000/svg" viewBox="0 0 100 100">
  <defs>
    <linearGradient id="storeGrad" x1="0%" y1="0%" x2="100%" y2="100%">
      <stop offset="0%" stop-color="#16a34a" />
      <stop offset="100%" stop-color="#14532d" />
    </linearGradient>
    <linearGradient id="basketGrad" x1="0%" y1="0%" x2="100%" y2="100%">
      <stop offset="0%" stop-color="#f59e0b" />
      <stop offset="100%" stop-color="#d97706" />
    </linearGradient>
  </defs>
  <!-- Background Rounded Shield -->
  <rect width="100" height="100" rx="24" fill="url(#storeGrad)" />
  <!-- Store Roof Awning -->
  <path d="M20 38 L80 38 L74 24 L26 24 Z" fill="#ffffff" opacity="0.95" />
  <path d="M26 24 L38 38 L32 38 L20 38 Z" fill="#f59e0b" />
  <path d="M50 24 L62 38 L56 38 L44 24 Z" fill="#f59e0b" />
  <path d="M68 24 L80 38 L74 38 L62 24 Z" fill="#f59e0b" />
  <!-- Basket / Bag Base -->
  <path d="M24 45 L76 45 L70 78 C69.5 82 66 85 62 85 L38 85 C34 85 30.5 82 30 78 Z" fill="url(#basketGrad)" />
  <!-- Basket Handle -->
  <path d="M36 45 C36 34 64 34 64 45" fill="none" stroke="#ffffff" stroke-width="4" stroke-linecap="round" />
  <!-- Grocery Leaf Motif in Center -->
  <path d="M50 56 C44 56 40 62 42 68 C48 68 56 64 56 58 C56 56 53 56 50 56 Z" fill="#ffffff" />
  <path d="M50 56 C50 63 43 68 43 68" stroke="#16a34a" stroke-width="2" stroke-linecap="round" />
  <circle cx="58" cy="62" r="3" fill="#ffffff" />
</svg>